<svg xmlns="http://www.w3.org/2000/svg" width="65" height="65" fill="none"><g clip-path="url(#a)"><path fill="#374957" d="M53.287 7.47A32.327 32.327 0 0 0 28.367.271a32.5 32.5 0 0 0 4.182 64.73h18.91A13.558 13.558 0 0 0 65 51.459v-21A32.617 32.617 0 0 0 53.287 7.47ZM21.667 18.96H32.5a2.708 2.708 0 1 1 0 5.416H21.667a2.708 2.708 0 0 1 0-5.416Zm21.667 27.083H21.667a2.708 2.708 0 1 1 0-5.416h21.667a2.708 2.708 0 1 1 0 5.416Zm0-10.833H21.667a2.708 2.708 0 1 1 0-5.417h21.667a2.708 2.708 0 0 1 0 5.417Z"/></g><defs><clipPath id="a"><path fill="#fff" d="M0 0h65v65H0z"/></clipPath></defs></svg>