<svg xmlns="http://www.w3.org/2000/svg" width="70" height="70" fill="none"><g fill="#374957" clip-path="url(#a)"><path d="M56.875 0h-43.75A13.14 13.14 0 0 0 0 13.125v43.75A13.14 13.14 0 0 0 13.125 70h43.75A13.14 13.14 0 0 0 70 56.875v-43.75A13.14 13.14 0 0 0 56.875 0Zm-43.75 8.75h43.75a4.375 4.375 0 0 1 4.375 4.375v43.75a4.351 4.351 0 0 1-1.283 3.092L34.498 34.498a11.667 11.667 0 0 0-16.496 0L8.75 43.75V13.125a4.375 4.375 0 0 1 4.375-4.375Z"/><path d="M45.208 29.166a7.292 7.292 0 1 0 0-14.583 7.292 7.292 0 0 0 0 14.583Z"/></g><defs><clipPath id="a"><path fill="#fff" d="M0 0h70v70H0z"/></clipPath></defs></svg>