<svg xmlns="http://www.w3.org/2000/svg" width="30" height="30" fill="none"><g clip-path="url(#a)"><path fill="#BBBCBC" d="M15 0C6.716 0 0 6.716 0 15c0 8.284 6.716 15 15 15 8.284 0 15-6.716 15-15C29.991 6.72 23.28.009 15 0Zm5 18.234A1.25 1.25 0 1 1 18.234 20L15 16.767 11.768 20A1.25 1.25 0 0 1 10 18.233L13.232 15 10 11.768A1.25 1.25 0 0 1 11.768 10L15 13.232 18.234 10A1.25 1.25 0 1 1 20 11.766L16.767 15 20 18.234Z"/></g><defs><clipPath id="a"><path fill="#fff" d="M0 0h30v30H0z"/></clipPath></defs></svg>