<svg xmlns="http://www.w3.org/2000/svg" width="75" height="75" fill="none"><g clip-path="url(#a)"><path fill="#DFE2E8" d="M71.166 24.13a15.606 15.606 0 0 0-11.791-5.379H46.909l1.05-6.378a9.49 9.49 0 0 0-17.878-5.74L24.1 18.75h-8.475A15.643 15.643 0 0 0 0 34.376v15.625a15.643 15.643 0 0 0 15.625 15.625h41.563A15.7 15.7 0 0 0 72.659 52.19l2.203-15.625a15.623 15.623 0 0 0-3.696-12.435ZM6.25 50V34.376a9.375 9.375 0 0 1 9.375-9.375h6.25v34.375h-6.25a9.375 9.375 0 0 1-9.375-9.375Zm62.41-14.315L66.452 51.31a9.412 9.412 0 0 1-9.266 8.065H28.125V24.17c.294-.257.538-.566.719-.913l6.84-13.859a3.343 3.343 0 0 1 5.382-.647 3.2 3.2 0 0 1 .728 2.625l-1.65 10a3.125 3.125 0 0 0 3.084 3.625h16.147a9.374 9.374 0 0 1 9.284 10.685Z"/></g><defs><clipPath id="a"><path fill="#fff" d="M0 0h75v75H0z"/></clipPath></defs></svg>