<svg xmlns="http://www.w3.org/2000/svg" width="65" height="65" fill="none"><g fill="#DFE2E8" clip-path="url(#a)"><path d="M65 30.461a32.532 32.532 0 1 0-32.454 34.54h18.912a13.555 13.555 0 0 0 13.541-13.542V30.46ZM59.582 51.46a8.125 8.125 0 0 1-8.125 8.125H32.546a27.193 27.193 0 0 1-20.248-9.054 26.858 26.858 0 0 1-6.706-21.163A27.2 27.2 0 0 1 29.036 5.639a28.611 28.611 0 0 1 3.52-.222 26.87 26.87 0 0 1 17.277 6.23 27.195 27.195 0 0 1 9.75 19.072v20.74Z"/><path d="M21.666 24.375H32.5a2.708 2.708 0 0 0 0-5.417H21.666a2.708 2.708 0 1 0 0 5.417ZM43.333 29.792H21.666a2.708 2.708 0 0 0 0 5.417h21.667a2.708 2.708 0 1 0 0-5.417ZM43.333 40.625H21.666a2.708 2.708 0 1 0 0 5.417h21.667a2.708 2.708 0 1 0 0-5.417Z"/></g><defs><clipPath id="a"><path fill="#fff" d="M0 0h65v65H0z"/></clipPath></defs></svg>