<svg xmlns="http://www.w3.org/2000/svg" xmlns:mydata="http://www.w3.org/2000/svg" mydata:companyname="Content Post" mydata:contrastcolor="ffffff" mydata:id1="872" mydata:id2="281" mydata:layouttype="undefined" mydata:presentation="2.5" mydata:specialfontid="undefined" mydata:template="Contrast" viewBox="0 35 550 400"><g fill="#bbbcbc" fill-rule="none" stroke-miterlimit="10" data-paper-data="{&quot;isGlobalGroup&quot;:true,&quot;bounds&quot;:{&quot;x&quot;:65,&quot;y&quot;:158.28090521969355,&quot;width&quot;:420,&quot;height&quot;:153.43818956061293}}" font-family="none" font-size="none" font-weight="none" style="mix-blend-mode:normal" text-anchor="none"><g fill-rule="nonzero" data-paper-data="{&quot;isPrimaryText&quot;:true}"><path d="M79.919 310.689c-6.09-.04-9.31-4.079-9.31-11.682 0-9.626 5.062-11.647 9.305-11.647 3.146.02 5.476 1.552 7.458 3.608l1.103-1.103c-2.306-2.286-5.719-3.536-10.025-3.536-8.422 0-13.45 4.74-13.45 12.678 0 7.96 5.028 12.712 13.45 12.712 4.303 0 7.715-1.251 10.02-3.54l-1.077-1.078c-2.314 2.402-5.05 3.588-7.474 3.588z" data-paper-data="{&quot;glyphName&quot;:&quot;C&quot;,&quot;glyphIndex&quot;:0,&quot;firstGlyphOfWord&quot;:true,&quot;word&quot;:1}"/><path d="M114.522 286.33c-8.395 0-13.407 4.752-13.407 12.712 0 7.938 5.012 12.677 13.407 12.677 8.422 0 13.45-4.74 13.45-12.677 0-7.96-5.028-12.713-13.45-12.713zm.002 24.359c-5.13-.04-7.842-4.067-7.842-11.647 0-9.656 4.263-11.682 7.838-11.682 5.131.039 7.843 4.078 7.843 11.682 0 9.626-4.264 11.647-7.839 11.647z" data-paper-data="{&quot;glyphName&quot;:&quot;O&quot;,&quot;glyphIndex&quot;:1,&quot;word&quot;:1}"/><path d="M166.017 295.894c-.332-3.296-1.51-6.846-2.599-9.22h-6.271c.69 2.148 7.088 23.099 1.056 23.099-1.594 0-9.01-3.75-9.022-14.035v-9.064h-5.54v24.7h4.926v-12.59c1.2 7.727 6.732 13.376 11.41 12.905 5.488-.553 7.038-5.894 6.04-15.795z" data-paper-data="{&quot;glyphName&quot;:&quot;N&quot;,&quot;glyphIndex&quot;:2,&quot;word&quot;:1}"/><path d="M178.517 286.674v1.1h9.79v23.6h4.926v-23.6h9.79v-1.1z" data-paper-data="{&quot;glyphName&quot;:&quot;T&quot;,&quot;glyphIndex&quot;:3,&quot;word&quot;:1}"/><path d="m218.697 292.292.02-.008c.03-.013.065-.025.097-.037 4.65-1.722 17.95.56 17.95.56v-5.166c-2.038-.717-5.499-1.312-8.604-1.312-7.939 0-12.678 2.016-12.678 6.226 0 3.411 3.093 5.71 8.465 6.47-5.372.758-8.465 3.058-8.465 6.469 0 4.21 4.74 6.225 12.678 6.225 3.105 0 6.566-.595 8.604-1.312v-5.165s-13.3 2.282-17.95.56l-.097-.037-.02-.008c-.98-.404-1.451-.947-1.466-1.647 0-1.26 1.166-4.29 9.95-4.508h6.182v-1.155h-6.182c-8.784-.218-9.95-3.248-9.95-4.509.015-.7.486-1.242 1.466-1.646z" data-paper-data="{&quot;glyphName&quot;:&quot;E&quot;,&quot;glyphIndex&quot;:4,&quot;word&quot;:1}"/><path d="M274.965 295.894c-.333-3.296-1.511-6.846-2.6-9.22h-6.271c.69 2.148 7.089 23.099 1.057 23.099-1.594 0-9.01-3.75-9.023-14.035v-9.064h-5.539v24.7h4.925v-12.59c1.2 7.727 6.732 13.376 11.41 12.905 5.488-.553 7.038-5.894 6.04-15.795z" data-paper-data="{&quot;glyphName&quot;:&quot;N&quot;,&quot;glyphIndex&quot;:5,&quot;word&quot;:1}"/><path d="M287.464 286.674v1.1h9.79v23.6h4.926v-23.6h9.79v-1.1z" data-paper-data="{&quot;glyphName&quot;:&quot;T&quot;,&quot;glyphIndex&quot;:6,&quot;lastGlyphOfWord&quot;:true,&quot;word&quot;:1}"/><path d="M359.048 286.674h-8.918v24.7h4.925v-9.405h3.395c6.56 0 11.141-3.173 11.141-7.717 0-4.816-3.843-7.578-10.543-7.578zm3.156 12.798c-1.41 1.155-3.215 1.397-4.481 1.397h-2.668v-13.096h2.71c2.433 0 6.516.842 6.516 6.48 0 2.334-.699 4.09-2.077 5.22z" data-paper-data="{&quot;glyphName&quot;:&quot;P&quot;,&quot;glyphIndex&quot;:7,&quot;firstGlyphOfWord&quot;:true,&quot;word&quot;:2}"/><path d="M397.03 286.33c-8.395 0-13.407 4.752-13.407 12.712 0 7.938 5.012 12.677 13.407 12.677 8.423 0 13.45-4.74 13.45-12.677 0-7.96-5.027-12.713-13.45-12.713zm.002 24.359c-5.13-.04-7.842-4.067-7.842-11.647 0-9.656 4.264-11.682 7.839-11.682 5.13.039 7.842 4.078 7.842 11.682 0 9.626-4.264 11.647-7.839 11.647z" data-paper-data="{&quot;glyphName&quot;:&quot;O&quot;,&quot;glyphIndex&quot;:8,&quot;word&quot;:2}"/><path d="M436.75 298.44c-.183-.01-1.099-.054-1.099-.054-7.778-.442-8.85-3.395-8.85-4.58.02-.936.886-2 2.727-2.349 5.371-.866 16.805 1.492 16.805 1.492v-5.33c-2.037-.705-5.498-1.29-8.604-1.29-7.938 0-12.677 2.225-12.677 6.362 0 3.774 3.922 6.383 10.6 6.809l1.098.056c7.778.45 8.85 3.502 8.85 4.686-.02.936-.886 2-2.726 2.35-5.37.865-16.806-1.492-16.806-1.492v5.33c2.038.705 5.499 1.29 8.604 1.29 7.939 0 12.678-2.226 12.678-6.363 0-3.773-3.91-6.552-10.6-6.916z" data-paper-data="{&quot;glyphName&quot;:&quot;S&quot;,&quot;glyphIndex&quot;:9,&quot;word&quot;:2}"/><path d="M460.494 286.674v1.1h9.79v23.6h4.926v-23.6H485v-1.1z" data-paper-data="{&quot;glyphName&quot;:&quot;T&quot;,&quot;glyphIndex&quot;:10,&quot;lastGlyphOfWord&quot;:true,&quot;word&quot;:2}"/></g><g fill-rule="evenodd" data-paper-data="{&quot;isIcon&quot;:&quot;true&quot;,&quot;iconType&quot;:&quot;icon&quot;,&quot;rawIconId&quot;:&quot;4033925&quot;,&quot;selectedEffects&quot;:{&quot;container&quot;:&quot;&quot;,&quot;transformation&quot;:&quot;&quot;,&quot;pattern&quot;:&quot;&quot;},&quot;isDetailed&quot;:false,&quot;fillRule&quot;:&quot;evenodd&quot;,&quot;bounds&quot;:{&quot;x&quot;:225.0095895562791,&quot;y&quot;:158.28090521969355,&quot;width&quot;:99.98082088744181,&quot;height&quot;:99.86600313376906},&quot;iconStyle&quot;:&quot;standalone&quot;,&quot;suitableAsStandaloneIcon&quot;:true}"><path d="M310.422 172.865a50.022 50.022 0 0 0-32.623-14.584h-.067a2.188 2.188 0 0 0-2.153 2.11 2.251 2.251 0 0 0 2.095 2.376c24.542 1.422 43.536 22.048 42.933 46.624-.602 24.576-20.585 44.247-45.167 44.464-24.582.216-44.908-19.099-45.944-43.66a2.282 2.282 0 0 0-2.345-2.142 2.251 2.251 0 0 0-1.563.719 2.298 2.298 0 0 0-.578 1.273v.619c1.128 22.19 16.767 40.994 38.41 46.128 21.751 5.16 44.285-4.738 55.2-24.246 10.916-19.508 7.563-43.89-8.213-59.727zm-35.39 77.175c22.622.14 41.244-17.757 42.002-40.368.758-22.61-16.623-41.714-39.204-43.09a2.237 2.237 0 1 0-.172 4.47c16.508 1.178 30.267 13.093 33.79 29.264 3.523 16.171-4.032 32.73-18.555 40.667-14.522 7.938-32.539 5.357-44.248-6.34a2.25 2.25 0 0 0-3.126 0 2.282 2.282 0 0 0 0 3.126 41.565 41.565 0 0 0 29.513 12.271zm29.03-40.787c.522-15.355-11-28.463-26.295-29.916l-.234-.062a2.157 2.157 0 0 1-2.032-2.236 2.314 2.314 0 0 1 2.25-2.157h.407c17.514 1.833 30.626 16.9 30.022 34.5-.605 17.6-14.721 31.732-32.32 32.358a2.22 2.22 0 0 1-2.25-2.173c-.001-1.22.969-2.217 2.188-2.251 15.358-.412 27.742-12.708 28.264-28.063zm-14.04 14.01a21.212 21.212 0 1 0-29.981 0c8.289 8.255 21.693 8.255 29.982 0z" data-paper-data="{&quot;isPathIcon&quot;:true}"/></g></g></svg>