<svg xmlns="http://www.w3.org/2000/svg" width="24" height="24" fill="none"><g clip-path="url(#a)"><path fill="#BBBCBC" d="M24 8.48V20a1 1 0 1 1-2 0v-8.248l-7.4 3.536a5 5 0 0 1-2.577.694 5.273 5.273 0 0 1-2.7-.739l-7.38-3.513a3.691 3.691 0 0 1 0-6.5L9.4 1.672a5.226 5.226 0 0 1 5.282.045l7.375 3.513A3.767 3.767 0 0 1 24 8.48Zm-11.978 9.5a7.26 7.26 0 0 1-3.645-.972L4 14.92v2.7a5.007 5.007 0 0 0 3.519 4.778c1.456.419 2.966.622 4.48.603a15.56 15.56 0 0 0 4.482-.607A5.007 5.007 0 0 0 20 17.615v-2.69l-4.46 2.13a6.984 6.984 0 0 1-3.518.927v-.002Z"/></g><defs><clipPath id="a"><path fill="#fff" d="M0 0h24v24H0z"/></clipPath></defs></svg>